<svg xmlns="http://www.w3.org/2000/svg" width="35" height="27" fill="none" xmlns:v="https://vecta.io/nano"><path d="M0 27v-7.105c0-2.158.379-4.447 1.138-6.868.785-2.447 1.91-4.803 3.374-7.066A25.36 25.36 0 0 1 9.888 0l5.022 4.105c-1.648 2.368-3.087 4.842-4.316 7.421-1.203 2.553-1.805 5.289-1.805 8.21V27H0zm20.09 0v-7.105c0-2.158.379-4.447 1.138-6.868.785-2.447 1.91-4.803 3.374-7.066A25.36 25.36 0 0 1 29.978 0L35 4.105c-1.648 2.368-3.087 4.842-4.316 7.421-1.203 2.553-1.805 5.289-1.805 8.21V27H20.09z" fill="#2e2f37"/></svg>