<svg width="36" height="28" viewBox="0 0 36 28" fill="none" xmlns="http://www.w3.org/2000/svg">
<path d="M0 27.239V20.0708C0 17.8938 0.390073 15.5841 1.17022 13.1416C1.97727 10.6726 3.13404 8.29648 4.64053 6.01329C6.17392 3.70355 8.01668 1.69912 10.1688 0L15.3339 4.1416C13.6391 6.53099 12.1595 9.02657 10.8952 11.6283C9.65768 14.2036 9.03895 16.9646 9.03895 19.9115V27.239H0ZM20.6604 27.239V20.0708C20.6604 17.8938 21.0505 15.5841 21.8307 13.1416C22.6377 10.6726 23.7945 8.29648 25.301 6.01329C26.8344 3.70355 28.6771 1.69912 30.8293 0L35.9944 4.1416C34.2996 6.53099 32.82 9.02657 31.5556 11.6283C30.3181 14.2036 29.6994 16.9646 29.6994 19.9115V27.239H20.6604Z" fill="#3A3C46"/>
</svg>
