<svg xmlns="http://www.w3.org/2000/svg" width="94" height="113" fill="none" xmlns:v="https://vecta.io/nano"><path d="M8.819 58.839V77h-2.37V58.839h2.37zm5.838 0v1.971H.624v-1.971h14.033zm23.753 7.808v1.958H28.58v-1.958h9.829zm-9.455-7.808V77h-2.407V58.839h2.407zm11.55 0V77H38.11V58.839h2.395zm25.013 16.203V77h-9.617v-1.958h9.617zm-9.13-16.203V77H53.98V58.839h2.407zm7.858 7.808v1.958h-8.345v-1.958h8.345zm1.148-7.808v1.971h-9.492v-1.971h9.492zM6.885 101.512l3.605-12.673h1.746l-1.01 4.927L7.347 107H5.613l1.272-5.488zm-3.73-12.673l2.869 12.423.861 5.738H5.164L.761 88.839h2.395zm13.746 12.411l2.807-12.411h2.407L17.725 107h-1.721l.898-5.75zm-4.403-12.411l3.505 12.673L17.276 107h-1.734L11.8 93.766l-1.023-4.927h1.721zm27.657 1.609L34.143 107h-2.457l6.923-18.161h1.584l-.037 1.609zM45.195 107L39.17 90.448l-.037-1.609h1.584L47.665 107h-2.47zm-.312-6.723v1.971H34.68v-1.971h10.203zm25.424 4.765V107h-9.081v-1.958h9.081zm-8.607-16.203V107h-2.407V88.839h2.407zm31.574 16.203V107h-9.081v-1.958h9.081zm-8.607-16.203V107H82.26V88.839h2.407z" fill="#fff"/><path d="M41.4 0H4.6C2.07 0 0 2.07 0 4.6V46l9.2-9.2h32.2c2.53 0 4.6-2.07 4.6-4.6V4.6C46 2.07 43.93 0 41.4 0zm0 32.2H7.36L4.6 34.96V4.6h36.8v27.6zm-6.9-11.5h-4.6v-4.6h4.6m-9.2 4.6h-4.6v-4.6h4.6m-9.2 4.6h-4.6v-4.6h4.6" fill="#00a3ff"/></svg>